# AST/ASF file generated using VICON BodyLanguage
# -----------------------------------------------
:version 1.10
:name VICON
:units
  mass 1.0
  length 0.45
  angle deg
:documentation
   .ast/.asf automatically generated from VICON data using
   VICON BodyBuilder and BodyLanguage model FoxedUp or BRILLIANT.MOD
:root
   order TX TY TZ RX RY RZ
   axis XYZ
   position 0 0 0  
   orientation 0 0 0 
:bonedata
  begin
     id 1 
     name lhipjoint
     direction 0.78388 -0.462562 0.414208 
     length 3.01181 
     axis 0 0 0  XYZ
  end
  begin
     id 2 
     name lfemur
     direction 0.34202 -0.939693 0  
     length 6.04673  
     axis 0 0 20  XYZ
    dof rx ry rz
    limits (-160.0 20.0)
           (-70.0 70.0)
           (-60.0 70.0)
  end
  begin
     id 3 
     name ltibia
     direction 0.34202 -0.939693 0   
     length 7.211   
     axis 0 0 20   XYZ
    dof rx
    limits (-10.0 170.0)
  end
  begin
     id 4 
     name lfoot
     direction 0.121887 -0.334882 0.934344   
     length 2.13567   
     axis -90 7.62852e-016 20   XYZ
    dof rx rz
    limits (-45.0 90.0)
           (-70.0 20.0)
  end
  begin
     id 5 
     name ltoes
     direction 1.53555e-011 -4.2179e-011 1   
     length 1.05957   
     axis -90 7.62852e-016 20   XYZ
    dof rx
    limits (-90.0 20.0)
  end
  begin
     id 6 
     name rhipjoint
     direction -0.769387 -0.475875 0.426129   
     length 2.92756  
     axis 0 0 0  XYZ 
  end
  begin
     id 7 
     name rfemur
     direction -0.34202 -0.939693 0   
     length 6.35468   
     axis 0 0 -20   XYZ
    dof rx ry rz
    limits (-160.0 20.0)
           (-70.0 70.0)
           (-70.0 60.0)
  end
  begin
     id 8 
     name rtibia
     direction -0.34202 -0.939693 0   
     length 7.37886   
     axis 0 0 -20   XYZ
    dof rx
    limits (-10.0 170.0)
 end
 begin
     id 9 
     name rfoot
     direction -0.101763 -0.279592 0.954711   
     length 2.21478  
     axis -90 -7.62852e-016 -20   XYZ
    dof rx rz
    limits (-45.0 90.0)
           (-20.0 70.0)
  end
  begin
     id 10 
     name rtoes
     direction -1.53494e-011 -4.21851e-011 1   
     length 1.10506   
     axis -90 -7.62852e-016 -20   XYZ
    dof rx
    limits (-90.0 20.0)
  end
  begin
     id 11 
     name lowerback
     direction 0.00747405 0.999267 0.0375481   
     length 2.13259   
     axis 0 0 0   XYZ
    dof rx ry rz
    limits (-20.0 45.0)
           (-30.0 30.0)
           (-30.0 30.0)
  end
  begin
     id 12 
     name upperback
     direction 0.00661626 0.996177 0.0871029   
     length 2.10528   
     axis 0 0 0   XYZ
    dof rx ry rz
    limits (-20.0 45.0)
           (-30.0 30.0)
           (-30.0 30.0)
  end
  begin
     id 13 
     name thorax
     direction 0.00320659 0.997679 0.0680167   
     length 2.11338   
     axis 0 0 0   XYZ
    dof rx ry rz
    limits (-20.0 45.0)
           (-30.0 30.0)
           (-30.0 30.0)
  end
  begin
     id 14 
     name lowerneck
     direction 0.0374841 0.973033 0.227602   
     length 1.42765   
     axis 0 0 0   XYZ
    dof rx ry rz
    limits (-20.0 45.0)
           (-30.0 30.0)
           (-30.0 30.0)
  end
  begin
     id 15 
     name upperneck
     direction 0.00481585 0.989155 -0.146795   
     length 1.47593   
     axis 0 0 0   XYZ
    dof rx ry rz
    limits (-20.0 45.0)
           (-30.0 30.0)
           (-30.0 30.0)
  end
  begin
     id 16
     name head
     direction -0.00292522 0.997206 -0.0746423  
     length 1.48116  
     axis 0 0 0   XYZ
    dof rx ry rz
    limits (-20.0 45.0)
           (-30.0 30.0)
           (-30.0 30.0)
  end
  begin
     id 17 
     name lclavicle
     direction 0.951444 0.305606 0.0368784  
     length 3.01855  
     axis 0 0 0   XYZ
    dof ry rz
    limits (-20.0 10.0)
           (0.0 20.0)
  end
  begin
     id 18 
     name lhumerus
     direction 1 -4.48977e-011 2.61664e-027   
     length 5.52731   
     axis 180 -30 -90   XYZ
    dof rx ry rz
    limits (-60.0 90.0)
           (-90.0 90.0)
           (-90.0 90.0)
  end
  begin
     id 19
     name lradius
     direction 1 -4.48944e-011 8.22157e-027   
     length 3.11059   
     axis 180 -30 -90   XYZ
    dof rx
    limits (-10.0 170.0)
  end
  begin
     id 20
     name lwrist
     direction 1 -4.48976e-011 1.5779e-026   
     length 1.5553   
     axis -1.15221e-014 90 90   XYZ
    dof ry
    limits (-180.0 0.0)
 end
  begin
     id 21 
     name lhand
     direction 1 -4.49025e-011 3.1558e-026   
     length 0.419626   
     axis -2.01367e-014 90 90   XYZ
    dof rx rz
    limits (-90.0 90.0)
           (-45.0 45.0)
  end
  begin
     id 22 
     name lfingers
     direction 1 -4.4904e-011 6.31161e-026   
     length 0.338313   
     axis -4.02734e-014 90 90   XYZ
    dof rx
    limits (0.0 90.0)
  end
  begin
     id 23
     name lthumb
     direction 0.707107 -6.35004e-011 0.707107   
     length 0.485752   
     axis -90 45 2.85299e-015   XYZ
    dof rx rz
    limits (-45.0 45.0)
           (-45.0 45.0)
  end
  begin
     id 24 
     name rclavicle
     direction -0.968876 0.223791 0.105816   
     length 3.04177  
     axis 0 0 0   XYZ 
    dof ry rz
    limits (-10.0 20.0)
           (-20.0 0.0)
  end
  begin
     id 25 
     name rhumerus
     direction -1 -4.48962e-011 -1.01384e-027  
     length 5.25396   
     axis 180 30 90   XYZ
    dof rx ry rz
    limits (-90.0 60.0)
           (-90.0 90.0)
           (-90.0 90.0)
  end
  begin
     id 26 
     name rradius
     direction -1 -4.48955e-011 8.88542e-027   
     length 3.10567   
     axis 180 30 90   XYZ
    dof rx
    limits (-10.0 170.0)
  end
  begin
     id 27 
     name rwrist
     direction -1 -4.48994e-011 1.5779e-026   
     length 1.55283   
     axis -1.15221e-014 -90 -90   XYZ
    dof ry
    limits (-180.0 0.0)
  end
  begin
     id 28
     name rhand
     direction -1 -4.48891e-011 3.1558e-026   
     length 0.498676   
     axis -2.01367e-014 -90 -90   XYZ
    dof rx rz
    limits (-90.0 90.0)
           (-45.0 45.0)
  end
  begin
     id 29
     name rfingers
     direction -1 -4.48972e-011 6.31161e-026   
     length 0.402045   
     axis -4.02734e-014 -90 -90   XYZ
    dof rx
    limits (0.0 90.0)
  end
  begin
     id 30
     name rthumb
     direction -0.707107 -6.34849e-011 0.707107   
     length 0.577259   
     axis -90 -45 -2.85299e-015   XYZ
    dof rx rz
    limits (-45.0 45.0)
           (-45.0 45.0)
  end
:hierarchy
  begin
    root lhipjoint rhipjoint lowerback
    lhipjoint lfemur
    lfemur ltibia
    ltibia lfoot
    lfoot ltoes
    rhipjoint rfemur
    rfemur rtibia
    rtibia rfoot
    rfoot rtoes
    lowerback upperback
    upperback thorax
    thorax lowerneck lclavicle rclavicle
    lowerneck upperneck
    upperneck head
    lclavicle lhumerus
    lhumerus lradius
    lradius lwrist
    lwrist lhand lthumb
    lhand lfingers
    rclavicle rhumerus
    rhumerus rradius
    rradius rwrist
    rwrist rhand rthumb
    rhand rfingers
  end

#!OML:ASF H:\Pregnant\Project 1\Capture day 1\Session 1\femalepreg.ASF
:FULLY-SPECIFIED
:DEGREES
71
root 6.51207 15.672 25.0841 25.6376 -85.1875 -8.56534
lowerback -24.6576 0.871286 0.352617
upperback -7.309 0.393887 1.23555
thorax 5.63754 -0.03995 1.23125
lowerneck -14.3974 8.37385 6.9925
upperneck 13.303 12.0035 -12.6637
head 7.69323 4.97189 -3.91144
rclavicle 2.23633e-014 1.07344e-014
rhumerus 12.0645 -55.6244 -8.99671
rradius 117.195
rwrist -16.7915
rhand -50.697 -41.8526
rfingers 7.12502
rthumb -23.2579 -70.468
lclavicle 2.23633e-014 1.07344e-014
lhumerus -4.73232 47.8088 -8.9345
lradius 103.821
lwrist 23.0888
lhand -41.4745 -73.2063
lfingers 7.12502
lthumb -14.3889 -43.7251
rfemur -20.7523 21.9801 13.6827
rtibia 26.0549
rfoot -16.6899 -24.2351
rtoes -12.5543
lfemur 0 0 0
ltibia 0
lfoot 0 0
ltoes 0
72
root 6.50962 15.6717 25.0834 25.693 -85.1966 -8.62172
lowerback -24.5863 0.890343 0.349013
upperback -7.31907 0.421847 1.22638
thorax 5.59041 -0.0259494 1.23058
lowerneck -14.4729 8.38258 7.03369
upperneck 13.3408 12.0215 -12.741
head 7.72901 4.97082 -3.93881
rclavicle -9.49197e-015 -2.18663e-014
rhumerus 12.3875 -55.8272 -8.66742
rradius 116.424
rwrist -16.0547
rhand -51.0457 -41.0079
rfingers 7.12502
rthumb -23.5924 -69.5806
lclavicle -9.49197e-015 -2.18663e-014
lhumerus -4.27362 48.0793 -8.9966
lradius 103.2
lwrist 23.2417
lhand -41.6223 -73.6279
lfingers 7.12502
lthumb -14.5313 -44.1568
rfemur -20.745 21.9822 13.6919
rtibia 26.0569
rfoot -16.6977 -24.2258
rtoes -12.5339
lfemur 0 0 0
ltibia 0
lfoot 0 0
ltoes 0
73
root 6.5072 15.6714 25.0826 25.7332 -85.2095 -8.66199
lowerback -24.5124 0.91326 0.343516
upperback -7.33074 0.455239 1.21677
thorax 5.54019 -0.00932556 1.23197
lowerneck -14.5161 8.37979 7.00905
upperneck 13.3534 12.0272 -12.77
head 7.74205 4.96698 -3.9424
rclavicle -5.46658e-015 3.97569e-015
rhumerus 12.7107 -56.028 -8.33694
rradius 115.65
rwrist -15.3587
rhand -51.3588 -39.5006
rfingers 7.12502
rthumb -23.8928 -68.0344
lclavicle -5.46658e-015 3.97569e-015
lhumerus -3.79668 48.3522 -9.02364
lradius 102.57
lwrist 23.431
lhand -41.7296 -74.0141
lfingers 7.12502
lthumb -14.6346 -44.5505
rfemur -20.7414 21.9858 13.6986
rtibia 26.0618
rfoot -16.7027 -24.2178
rtoes -12.5354
lfemur 0 0 0
ltibia 0
lfoot 0 0
ltoes 0
74
root 6.50476 15.671 25.0816 25.7611 -85.2253 -8.68923
lowerback -24.4396 0.898552 0.320032
upperback -7.33594 0.443029 1.22557
thorax 5.49804 -0.0146883 1.25075
lowerneck -14.5614 8.41747 7.03786
upperneck 13.3539 12.0812 -12.8253
head 7.76183 4.98683 -3.95641
rclavicle -4.96962e-015 1.27222e-014
rhumerus 13.2202 -56.2184 -8.22026
rradius 114.871
rwrist -14.7144
rhand -51.5864 -39.121
rfingers 7.12502
rthumb -24.111 -67.6259
lclavicle -4.96962e-015 1.27222e-014
lhumerus -3.4509 48.6283 -9.1847
lradius 101.933
lwrist 23.6452
lhand -41.7943 -74.3669
lfingers 7.12502
lthumb -14.697 -44.9079
rfemur -20.7403 21.9899 13.7029
rtibia 26.0693
rfoot -16.7091 -24.2082
rtoes -12.5417
lfemur 0 0 0
ltibia 0
lfoot 0 0
ltoes 0
75
root 6.50228 15.6707 25.0806 25.7762 -85.2421 -8.70305
lowerback -24.3699 0.878748 0.29208
upperback -7.33892 0.424904 1.23916
thorax 5.45991 -0.0228759 1.27566
lowerneck -14.5993 8.46078 7.05512
upperneck 13.3433 12.1435 -12.8747
head 7.77647 5.01113 -3.96566
rclavicle -3.23025e-015 -5.1684e-015
rhumerus 13.7878 -56.3987 -8.15908
rradius 114.078
rwrist -14.1362
rhand -51.7569 -39.497
rfingers 7.12502
rthumb -24.2745 -67.9803
lclavicle -3.23025e-015 -5.1684e-015
lhumerus -3.10161 48.9043 -9.33507
lradius 101.273
lwrist 23.8343
lhand -41.8544 -74.6951
lfingers 7.12502
lthumb -14.7549 -45.2402
rfemur -20.7417 21.9905 13.7063
rtibia 26.0793
rfoot -16.7151 -24.1964
rtoes -12.5515
lfemur 0 0 0
ltibia 0
lfoot 0 0
ltoes 0
76
root 6.49977 15.6705 25.0794 25.7749 -85.2619 -8.69944
lowerback -24.3004 0.849945 0.259772
upperback -7.34135 0.395954 1.25463
thorax 5.42268 -0.036325 1.30208
lowerneck -14.6335 8.51674 7.08523
upperneck 13.326 12.2205 -12.9267
head 7.79085 5.04328 -3.97584
rclavicle 1.12313e-014 7.95139e-015
rhumerus 14.3818 -56.6063 -8.08764
rradius 113.251
rwrist -13.6958
rhand -51.8818 -40.2212
rfingers 7.12502
rthumb -24.3942 -68.6883
lclavicle 1.12313e-014 7.95139e-015
lhumerus -2.77361 49.176 -9.51292
lradius 100.598
lwrist 23.9878
lhand -41.9251 -74.9788
lfingers 7.12502
lthumb -14.823 -45.5289
rfemur -20.746 21.9941 13.7068
rtibia 26.0916
rfoot -16.7212 -24.1869
rtoes -12.5731
lfemur 0 0 0
ltibia 0
lfoot 0 0
ltoes 0
77
root 6.49728 15.6703 25.0783 25.7477 -85.2829 -8.66793
lowerback -24.2323 0.829331 0.232084
upperback -7.34656 0.377066 1.25977
thorax 5.38307 -0.0449943 1.31752
lowerneck -14.6588 8.56732 7.11471
upperneck 13.3078 12.2889 -12.97
head 7.80184 5.07259 -3.98443
rclavicle 1.43622e-014 7.15625e-015
rhumerus 14.9148 -56.8317 -7.921
rradius 112.403
rwrist -13.3848
rhand -52.0021 -40.7348
rfingers 7.12502
rthumb -24.5095 -69.1864
lclavicle 1.43622e-014 7.15625e-015
lhumerus -2.40814 49.4414 -9.66336
lradius 99.904
lwrist 24.1003
lhand -41.9984 -75.2119
lfingers 7.12502
lthumb -14.8936 -45.7673
rfemur -20.7546 21.9892 13.7045
rtibia 26.1071
rfoot -16.7273 -24.1725
rtoes -12.5995
lfemur 0 0 0
ltibia 0
lfoot 0 0
ltoes 0
78
root 6.49475 15.6702 25.077 25.6894 -85.3066 -8.60336
lowerback -24.1659 0.830945 0.209276
upperback -7.35623 0.386422 1.25279
thorax 5.3389 -0.0400588 1.32493
lowerneck -14.684 8.59362 7.11172
upperneck 13.3016 12.3277 -12.9899
head 7.80977 5.08786 -3.9843
rclavicle 2.98177e-015 2.06736e-014
rhumerus 15.3007 -57.0848 -7.55916
rradius 111.542
rwrist -13.2283
rhand -52.0863 -41.1064
rfingers 7.12502
rthumb -24.5902 -69.5471
lclavicle 2.98177e-015 2.06736e-014
lhumerus -1.97172 49.7013 -9.74074
lradius 99.1992
lwrist 24.1874
lhand -42.0831 -75.4031
lfingers 7.12502
lthumb -14.9752 -45.9646
rfemur -20.7677 21.982 13.6978
rtibia 26.1263
rfoot -16.7369 -24.1527
rtoes -12.6187
lfemur 0 0 0
ltibia 0
lfoot 0 0
ltoes 0
79
root 6.49222 15.6702 25.0758 25.5906 -85.3345 -8.49659
lowerback -24.1021 0.852535 0.191974
upperback -7.36918 0.421115 1.23225
thorax 5.29207 -0.0229174 1.32152
lowerneck -14.7058 8.60048 7.09675
upperneck 13.3057 12.3412 -12.9983
head 7.81615 5.09149 -3.9821
rclavicle -2.38542e-015 -1.98785e-015
rhumerus 15.5603 -57.3564 -7.04355
rradius 110.683
rwrist -13.2174
rhand -52.1052 -41.5972
rfingers 7.12502
rthumb -24.6084 -70.0353
lclavicle -2.38542e-015 -1.98785e-015
lhumerus -1.47825 49.9539 -9.75679
lradius 98.4907
lwrist 24.2625
lhand -42.1606 -75.5612
lfingers 7.12502
lthumb -15.0499 -46.1283
rfemur -20.7856 21.9752 13.6851
rtibia 26.1501
rfoot -16.7476 -24.1313
rtoes -12.6416
lfemur 0 0 0
ltibia 0
lfoot 0 0
ltoes 0
80
root 6.48974 15.6702 25.0746 25.448 -85.3651 -8.34314
lowerback -24.0393 0.880326 0.169549
upperback -7.38746 0.464703 1.21028
thorax 5.23968 -0.00157666 1.32188
lowerneck -14.716 8.59809 7.07257
upperneck 13.3131 12.3438 -13.0012
head 7.81939 5.09028 -3.97856
rclavicle 1.73937e-015 -1.55052e-014
rhumerus 15.7771 -57.6142 -6.49031
rradius 109.838
rwrist -13.313
rhand -52.044 -42.092
rfingers 7.12502
rthumb -24.5497 -70.5382
lclavicle 1.73937e-015 -1.55052e-014
lhumerus -0.989261 50.1916 -9.76825
lradius 97.783
lwrist 24.3513
lhand -42.2222 -75.7198
lfingers 7.12502
lthumb -15.1092 -46.2912
rfemur -20.8093 21.9718 13.6648
rtibia 26.1779
rfoot -16.7653 -24.1088
rtoes -12.6436
lfemur 0 0 0
ltibia 0
lfoot 0 0
ltoes 0
81
root 6.48728 15.6703 25.0733 25.2746 -85.3982 -8.15715
lowerback -23.9771 0.912023 0.140722
upperback -7.41002 0.514383 1.18935
thorax 5.18265 0.022656 1.32861
lowerneck -14.7088 8.58852 7.03605
upperneck 13.3169 12.3382 -12.9987
head 7.81634 5.08594 -3.97299
rclavicle -1.04362e-015 1.19271e-015
rhumerus 15.9849 -57.8407 -5.95522
rradius 109.011
rwrist -13.476
rhand -51.9324 -42.6241
rfingers 7.12502
rthumb -24.4427 -71.0847
lclavicle -1.04362e-015 1.19271e-015
lhumerus -0.513082 50.414 -9.77332
lradius 97.0781
lwrist 24.4562
lhand -42.2866 -75.888
lfingers 7.12502
lthumb -15.1712 -46.4641
rfemur -20.8375 21.9767 13.6385
rtibia 26.2095
rfoot -16.7912 -24.0876
rtoes -12.6177
lfemur 0 0 0
ltibia 0
lfoot 0 0
ltoes 0
